<mxfile host="65bd71144e">
    <diagram id="C-PjmeCGkAlcpk9YQ1E-" name="Page-1">
        <mxGraphModel dx="983" dy="563" grid="1" gridSize="10" guides="1" tooltips="1" connect="1" arrows="1" fold="1" page="1" pageScale="1" pageWidth="1100" pageHeight="850" background="#FFFFFF" math="0" shadow="0">
            <root>
                <mxCell id="0"/>
                <mxCell id="1" parent="0"/>
                <mxCell id="49" value="" style="whiteSpace=wrap;html=1;labelBackgroundColor=none;strokeColor=none;fontSize=8;fontColor=#FF8000;fillColor=#E6E6E6;" parent="1" vertex="1">
                    <mxGeometry x="487.5" y="154" width="113" height="112" as="geometry"/>
                </mxCell>
                <mxCell id="48" value="" style="whiteSpace=wrap;html=1;labelBackgroundColor=none;strokeColor=none;fontSize=8;fontColor=#FF8000;fillColor=#E6E6E6;" parent="1" vertex="1">
                    <mxGeometry x="649.63" y="158" width="113" height="112" as="geometry"/>
                </mxCell>
                <mxCell id="47" value="" style="whiteSpace=wrap;html=1;labelBackgroundColor=none;strokeColor=none;fontSize=8;fontColor=#FF8000;fillColor=#E6E6E6;" parent="1" vertex="1">
                    <mxGeometry x="632" y="362" width="84" height="112" as="geometry"/>
                </mxCell>
                <mxCell id="9" value="&lt;b style=&quot;border-color: var(--border-color);&quot;&gt;Hub&lt;br style=&quot;border-color: var(--border-color);&quot;&gt;10.0.0.0/24&lt;/b&gt;" style="whiteSpace=wrap;html=1;fillColor=none;strokeColor=#0066CC;dashed=1;labelPosition=center;verticalLabelPosition=bottom;align=center;verticalAlign=top;" parent="1" vertex="1">
                    <mxGeometry x="530" y="358" width="190" height="120" as="geometry"/>
                </mxCell>
                <mxCell id="46" value="" style="whiteSpace=wrap;html=1;labelBackgroundColor=none;strokeColor=none;fontSize=8;fontColor=#FF8000;fillColor=#E6E6E6;" parent="1" vertex="1">
                    <mxGeometry x="534" y="362" width="95" height="112" as="geometry"/>
                </mxCell>
                <mxCell id="2" value="&lt;b&gt;On-Premises&amp;nbsp;&lt;br&gt;(emulated in Azure)&lt;br&gt;192.168.100.0/24&lt;/b&gt;" style="whiteSpace=wrap;html=1;fillColor=#eeeeee;strokeColor=#36393d;labelPosition=center;verticalLabelPosition=top;align=center;verticalAlign=bottom;dashed=1;dashPattern=1 1;" parent="1" vertex="1">
                    <mxGeometry x="87" y="360" width="169.38" height="120" as="geometry"/>
                </mxCell>
                <mxCell id="39" style="edgeStyle=none;html=1;entryX=0.077;entryY=0.493;entryDx=0;entryDy=0;entryPerimeter=0;dashed=1;endArrow=none;endFill=0;strokeColor=#FF8000;" parent="1" source="12" target="38" edge="1">
                    <mxGeometry relative="1" as="geometry"/>
                </mxCell>
                <mxCell id="11" value="Onprem-vm1&lt;br&gt;.4" style="aspect=fixed;html=1;points=[];align=center;image;fontSize=12;image=img/lib/azure2/compute/Virtual_Machine.svg;labelBackgroundColor=none;" parent="1" vertex="1">
                    <mxGeometry x="110.001834625323" y="382" width="43.13" height="40" as="geometry"/>
                </mxCell>
                <mxCell id="12" value="Onprem-NVA&lt;br&gt;.36&lt;br&gt;&lt;font color=&quot;#ff8000&quot; style=&quot;font-size: 8px;&quot;&gt;&lt;b&gt;ZeroTier Client&lt;br&gt;&lt;/b&gt;&lt;/font&gt;" style="aspect=fixed;html=1;points=[];align=center;image;fontSize=12;image=img/lib/azure2/compute/Virtual_Machine.svg;labelBackgroundColor=none;" parent="1" vertex="1">
                    <mxGeometry x="186.9969250645995" y="382" width="43.13" height="40" as="geometry"/>
                </mxCell>
                <mxCell id="26" value="&lt;b style=&quot;border-color: var(--border-color);&quot;&gt;Spoke1&lt;br style=&quot;border-color: var(--border-color);&quot;&gt;10.0.1.0/24&lt;/b&gt;" style="whiteSpace=wrap;html=1;fillColor=none;strokeColor=#0066CC;dashed=1;labelPosition=center;verticalLabelPosition=top;align=center;verticalAlign=bottom;" parent="1" vertex="1">
                    <mxGeometry x="484" y="150" width="120" height="120" as="geometry"/>
                </mxCell>
                <mxCell id="27" value="" style="aspect=fixed;html=1;points=[];align=center;image;fontSize=12;image=img/lib/azure2/networking/Virtual_Networks.svg;dashed=1;" parent="1" vertex="1">
                    <mxGeometry x="580.55" y="154" width="23.45" height="14" as="geometry"/>
                </mxCell>
                <mxCell id="28" value="spk1-vm1&lt;br&gt;.4" style="aspect=fixed;html=1;points=[];align=center;image;fontSize=12;image=img/lib/azure2/compute/Virtual_Machine.svg;labelBackgroundColor=none;" parent="1" vertex="1">
                    <mxGeometry x="522.44" y="178" width="43.13" height="40" as="geometry"/>
                </mxCell>
                <mxCell id="37" value="" style="edgeStyle=none;html=1;exitX=0.5;exitY=1;exitDx=0;exitDy=0;endArrow=none;endFill=0;dashed=1;fontSize=8;strokeColor=#0066CC;entryX=0;entryY=0.25;entryDx=0;entryDy=0;" parent="1" source="30" target="53" edge="1">
                    <mxGeometry x="-0.1304" y="-7" relative="1" as="geometry">
                        <mxPoint x="720" y="418" as="targetPoint"/>
                        <mxPoint as="offset"/>
                    </mxGeometry>
                </mxCell>
                <mxCell id="60" value="VNET Peerting" style="edgeLabel;html=1;align=center;verticalAlign=middle;resizable=0;points=[];fontSize=8;rotation=-49.8;" parent="37" vertex="1" connectable="0">
                    <mxGeometry x="-0.2867" y="2" relative="1" as="geometry">
                        <mxPoint x="3" y="5" as="offset"/>
                    </mxGeometry>
                </mxCell>
                <mxCell id="30" value="&lt;b style=&quot;border-color: var(--border-color);&quot;&gt;Spoke2&lt;br style=&quot;border-color: var(--border-color);&quot;&gt;10.0.2.0/24&lt;/b&gt;" style="whiteSpace=wrap;html=1;fillColor=none;strokeColor=#0066CC;dashed=1;labelPosition=center;verticalLabelPosition=top;align=center;verticalAlign=bottom;" parent="1" vertex="1">
                    <mxGeometry x="645.88" y="154" width="121.75" height="120" as="geometry"/>
                </mxCell>
                <mxCell id="31" value="" style="aspect=fixed;html=1;points=[];align=center;image;fontSize=12;image=img/lib/azure2/networking/Virtual_Networks.svg;dashed=1;" parent="1" vertex="1">
                    <mxGeometry x="740.68" y="158" width="23.45" height="14" as="geometry"/>
                </mxCell>
                <mxCell id="32" value="spk2-vm1&lt;br&gt;.4" style="aspect=fixed;html=1;points=[];align=center;image;fontSize=12;image=img/lib/azure2/compute/Virtual_Machine.svg;labelBackgroundColor=none;" parent="1" vertex="1">
                    <mxGeometry x="685.1899999999999" y="182" width="43.13" height="40" as="geometry"/>
                </mxCell>
                <mxCell id="36" style="edgeStyle=none;html=1;exitX=0;exitY=0.25;exitDx=0;exitDy=0;entryX=0.5;entryY=1;entryDx=0;entryDy=0;endArrow=none;endFill=0;dashed=1;strokeColor=#0066CC;" parent="1" source="53" target="26" edge="1">
                    <mxGeometry relative="1" as="geometry"/>
                </mxCell>
                <mxCell id="56" value="VNET Peering" style="edgeLabel;html=1;align=center;verticalAlign=middle;resizable=0;points=[];fontSize=8;fontColor=#000000;rotation=48;" parent="36" vertex="1" connectable="0">
                    <mxGeometry relative="1" as="geometry">
                        <mxPoint x="-12" y="-4" as="offset"/>
                    </mxGeometry>
                </mxCell>
                <mxCell id="40" style="edgeStyle=none;html=1;entryX=0.852;entryY=0.507;entryDx=0;entryDy=0;entryPerimeter=0;dashed=1;endArrow=none;endFill=0;strokeColor=#FF8000;" parent="1" source="14" target="38" edge="1">
                    <mxGeometry relative="1" as="geometry"/>
                </mxCell>
                <mxCell id="10" value="" style="aspect=fixed;html=1;points=[];align=center;image;fontSize=12;image=img/lib/azure2/networking/Virtual_Networks.svg;dashed=1;" parent="1" vertex="1">
                    <mxGeometry x="690" y="348" width="33.5" height="20" as="geometry"/>
                </mxCell>
                <mxCell id="14" value="&lt;font style=&quot;&quot;&gt;Hub-NVA&lt;br&gt;.36&lt;br&gt;&lt;font color=&quot;#ff8000&quot; style=&quot;font-size: 8px;&quot;&gt;&lt;b&gt;ZeroTier Client&lt;/b&gt;&lt;/font&gt;&lt;/font&gt;" style="aspect=fixed;html=1;points=[];align=center;image;fontSize=12;image=img/lib/azure2/compute/Virtual_Machine.svg;labelBackgroundColor=none;" parent="1" vertex="1">
                    <mxGeometry x="558.44" y="383" width="43.13" height="40" as="geometry"/>
                </mxCell>
                <mxCell id="13" value="Hub-vm1&lt;br&gt;.4" style="aspect=fixed;html=1;points=[];align=center;image;fontSize=12;image=img/lib/azure2/compute/Virtual_Machine.svg;labelBackgroundColor=none;" parent="1" vertex="1">
                    <mxGeometry x="646.87" y="384" width="43.13" height="40" as="geometry"/>
                </mxCell>
                <mxCell id="38" value="Zero-Tier SD-WAN&lt;br&gt;&lt;b&gt;100.64.0.0/24&lt;/b&gt;" style="html=1;verticalLabelPosition=middle;align=center;labelBackgroundColor=#ffffff;verticalAlign=middle;strokeWidth=2;strokeColor=#FF8000;shadow=0;dashed=0;shape=mxgraph.ios7.icons.cloud;fontColor=#FF8000;labelPosition=center;spacing=0;spacingTop=35;sketch=1;curveFitting=1;jiggle=2;" parent="1" vertex="1">
                    <mxGeometry x="325" y="362" width="134" height="82" as="geometry"/>
                </mxCell>
                <mxCell id="51" value="Subnet1" style="text;strokeColor=none;align=center;fillColor=none;html=1;verticalAlign=middle;whiteSpace=wrap;rounded=0;labelBackgroundColor=none;fontSize=8;fontColor=#000000;" parent="1" vertex="1">
                    <mxGeometry x="482.25" y="150" width="60" height="30" as="geometry"/>
                </mxCell>
                <mxCell id="52" value="Subnet1" style="text;strokeColor=none;align=center;fillColor=none;html=1;verticalAlign=middle;whiteSpace=wrap;rounded=0;labelBackgroundColor=none;fontSize=8;fontColor=#000000;" parent="1" vertex="1">
                    <mxGeometry x="645.88" y="154" width="60" height="30" as="geometry"/>
                </mxCell>
                <mxCell id="53" value="Subnet1 .0/27" style="text;strokeColor=none;align=center;fillColor=none;html=1;verticalAlign=middle;whiteSpace=wrap;rounded=0;labelBackgroundColor=none;fontSize=8;fontColor=#000000;" parent="1" vertex="1">
                    <mxGeometry x="629" y="354" width="60" height="30" as="geometry"/>
                </mxCell>
                <mxCell id="54" value="NVASubnet .32/27" style="text;strokeColor=none;align=center;fillColor=none;html=1;verticalAlign=middle;whiteSpace=wrap;rounded=0;labelBackgroundColor=none;fontSize=8;fontColor=#000000;" parent="1" vertex="1">
                    <mxGeometry x="534" y="354" width="70" height="30" as="geometry"/>
                </mxCell>
                <mxCell id="61" value="ZTINT: 100.64.0.1" style="text;strokeColor=none;align=center;fillColor=none;html=1;verticalAlign=middle;whiteSpace=wrap;rounded=0;hachureGap=4;fontFamily=Helvetica;fontSize=8;fontColor=#FF8000;fontStyle=1" vertex="1" parent="1">
                    <mxGeometry x="214" y="386" width="100" height="20" as="geometry"/>
                </mxCell>
                <mxCell id="62" value="100.64.0.2 :ZTINT" style="text;strokeColor=none;align=center;fillColor=none;html=1;verticalAlign=middle;whiteSpace=wrap;rounded=0;sketch=1;hachureGap=4;jiggle=2;curveFitting=1;fontFamily=Helvetica;fontSize=8;fontColor=#FF8000;fontStyle=1" vertex="1" parent="1">
                    <mxGeometry x="477" y="382" width="94" height="30" as="geometry"/>
                </mxCell>
            </root>
        </mxGraphModel>
    </diagram>
</mxfile>